<svg width="230" height="208" version="1.1" xmlns="http://www.w3.org/2000/svg" desc="Created with imagetracer.js version 1.2.6" ><path fill="rgb(0,0,0)" stroke="rgb(0,0,0)" stroke-width="1" opacity="0" d="M 0 0 L 230 0 L 230 208 L 0 208 L 0 0 Z M 107 12 L 100 14 L 94 14 L 75 21 L 64 27 L 60 31 Q 56 30 57 33 L 55 34 Q 39 46 30 65 L 24 80 L 21 93 L 21 101 L 23 102 L 45 102 L 47 101 L 49 91 L 53 80 L 40 80 L 52 58 L 73 39 L 82 34 L 94 30 L 109 15 Q 110 11 107 12 Z M 120 12 L 120 14 L 137 30 Q 154 35 167 46 Q 181 58 189 78 L 189 80 L 177 80 L 182 100 L 185 102 L 207 102 L 208 101 Q 211 102 209 97 L 209 95 L 207 87 L 207 85 L 200 66 L 182 40 L 159 23 Q 155 24 156 21 L 153 21 L 136 14 L 120 12 Z M 115 17 L 90 42 L 88 42 L 88 44 L 63 69 L 63 101 L 65 101 L 71 93 L 73 93 L 115 51 L 132 68 Q 131 70 134 69 L 138 74 L 141 76 L 145 82 L 149 85 Q 148 87 151 86 L 151 88 L 153 88 L 158 95 L 164 100 Q 163 102 166 101 L 167 95 L 166 94 L 166 79 L 167 76 L 165 66 L 156 59 Q 157 56 155 57 L 127 30 L 127 28 L 126 28 L 115 17 Z M 115 53 L 63 105 L 63 129 L 65 129 L 114 80 L 116 80 L 150 114 L 155 118 L 156 121 L 160 124 L 162 127 L 166 129 L 167 127 Q 169 121 166 120 L 166 110 L 167 109 L 166 105 L 142 81 L 142 79 L 135 74 Q 136 71 133 72 L 133 70 L 129 68 Q 130 65 127 66 L 127 64 L 126 64 L 123 60 L 115 53 Z M 114 90 L 113 91 Q 110 90 111 93 L 104 99 Q 105 101 102 100 L 102 102 L 100 102 L 100 104 L 98 104 L 98 106 L 96 106 L 96 108 L 95 108 L 92 112 L 86 116 L 83 121 Q 80 120 81 123 L 79 123 L 79 125 L 70 133 Q 71 135 68 134 L 68 136 L 66 136 L 66 138 L 64 138 L 63 141 L 63 148 L 114 198 L 116 198 L 150 165 Q 149 162 152 163 L 160 154 L 163 152 L 167 147 L 166 140 L 148 121 L 146 121 L 146 120 L 131 104 Q 128 105 129 102 L 127 102 L 127 100 L 120 95 L 118 92 Q 117 89 114 90 Z M 23 112 L 21 114 Q 23 144 38 162 Q 37 164 40 163 L 43 169 Q 56 184 75 193 Q 88 200 107 202 L 108 199 L 107 199 L 91 183 Q 75 178 64 168 Q 48 155 40 135 L 53 134 L 54 133 L 51 127 L 48 114 L 48 112 L 23 112 Z M 183 112 L 181 114 Q 180 124 176 133 L 178 134 L 189 134 L 183 149 L 169 166 Q 166 165 167 168 L 156 176 L 142 182 L 140 182 L 121 201 L 121 202 Q 157 198 177 178 Q 179 179 178 176 L 183 173 Q 182 170 185 171 L 192 162 Q 191 159 194 160 L 194 158 L 198 152 Q 197 149 200 150 L 199 149 L 204 139 L 206 131 L 206 129 Q 209 126 208 120 L 208 118 L 209 114 L 208 112 L 183 112 Z " /><path fill="rgb(0,0,0)" stroke="rgb(0,0,0)" stroke-width="1" opacity="0" d="M 113.5 119 L 115.5 119 L 125 127 L 127.5 131 L 132 134.5 Q 131.3 136.8 133.5 136 L 136 140 L 139 141.5 Q 140 148 135.5 149 Q 133.3 148.3 134 150.5 L 114.5 168 L 110 165 L 107.5 161 L 102.5 157 L 93 147.5 L 93 146 Q 89.7 147.3 91 142.5 L 113.5 119 Z " /><path fill="rgb(50,63,62)" stroke="rgb(50,63,62)" stroke-width="1" opacity="0.3254901960784314" d="M 106.5 12 Q 110.3 10.8 109 14.5 L 93 29.5 L 103 19.5 L 103 18 L 108 14.5 Q 108.8 12.3 106.5 13 L 106.5 12 Z " /><path fill="rgb(50,63,62)" stroke="rgb(50,63,62)" stroke-width="1" opacity="0.3254901960784314" d="M 120 12 L 123 12.5 L 122 14.5 L 136.5 30 L 120 13.5 L 120 12 Z " /><path fill="rgb(50,63,62)" stroke="rgb(50,63,62)" stroke-width="1" opacity="0.3254901960784314" d="M 100.5 13 L 105 13.5 L 100.5 14 L 100.5 13 Z " /><path fill="rgb(50,63,62)" stroke="rgb(50,63,62)" stroke-width="1" opacity="0.3254901960784314" d="M 124.5 13 L 130 13.5 L 124.5 14 L 124.5 13 Z " /><path fill="rgb(50,63,62)" stroke="rgb(50,63,62)" stroke-width="1" opacity="0.3254901960784314" d="M 93.5 14 L 98 14.5 L 90.5 16 L 90.5 15 L 93.5 14 Z " /><path fill="rgb(50,63,62)" stroke="rgb(50,63,62)" stroke-width="1" opacity="0.3254901960784314" d="M 131.5 14 Q 138.1 13.4 141 16.5 L 139.5 17 Q 137.2 14.3 131.5 15 L 131.5 14 Z " /><path fill="rgb(50,63,62)" stroke="rgb(50,63,62)" stroke-width="1" opacity="0.3254901960784314" d="M 114.5 17 L 125.5 28 L 127 28 L 127 29.5 L 154.5 57 Q 156.8 56.3 156 58.5 L 165 66 L 166 68.5 L 114.5 18 L 64 68.5 L 63.5 70 L 63 68.5 L 88 43.5 L 88 42 L 89.5 42 L 114.5 17 Z " /><path fill="rgb(50,63,62)" stroke="rgb(50,63,62)" stroke-width="1" opacity="0.3254901960784314" d="M 74.5 21 L 76 21.5 L 73.5 23 L 74.5 21 Z " /><path fill="rgb(50,63,62)" stroke="rgb(50,63,62)" stroke-width="1" opacity="0.3254901960784314" d="M 153.5 21 Q 156.8 19.9 156 22.5 L 154.5 22 L 153.5 21 Z " /><path fill="rgb(50,63,62)" stroke="rgb(50,63,62)" stroke-width="1" opacity="0.3254901960784314" d="M 70.5 23 L 72 23.5 L 69.5 25 L 70.5 23 Z " /><path fill="rgb(50,63,62)" stroke="rgb(50,63,62)" stroke-width="1" opacity="0.3254901960784314" d="M 157.5 23 L 160 24.5 L 158.5 24 L 157.5 23 Z " /><path fill="rgb(50,63,62)" stroke="rgb(50,63,62)" stroke-width="1" opacity="0.3254901960784314" d="M 67.5 25 L 66.5 27 L 67.5 25 Z " /><path fill="rgb(50,63,62)" stroke="rgb(50,63,62)" stroke-width="1" opacity="0.3254901960784314" d="M 163.5 26 L 168 29.5 L 165.5 28 L 163.5 26 Z " /><path fill="rgb(50,63,62)" stroke="rgb(50,63,62)" stroke-width="1" opacity="0.3254901960784314" d="M 63.5 27 L 65 27.5 L 60.5 31 L 63.5 27 Z " /><path fill="rgb(50,63,62)" stroke="rgb(50,63,62)" stroke-width="1" opacity="0.3254901960784314" d="M 169.5 30 L 178 37.5 L 172.5 33 L 169.5 30 Z " /><path fill="rgb(50,63,62)" stroke="rgb(50,63,62)" stroke-width="1" opacity="0.3254901960784314" d="M 57 31 L 59 31.5 L 56 33.5 L 57 31 Z " /><path fill="rgb(50,63,62)" stroke="rgb(50,63,62)" stroke-width="1" opacity="0.3254901960784314" d="M 140.5 31 L 143 31.5 L 140.5 32 L 140.5 31 Z " /><path fill="rgb(50,63,62)" stroke="rgb(50,63,62)" stroke-width="1" opacity="0.3254901960784314" d="M 84.5 32 L 86 32.5 L 82.5 34 L 82.5 33 L 84.5 32 Z " /><path fill="rgb(50,63,62)" stroke="rgb(50,63,62)" stroke-width="1" opacity="0.3254901960784314" d="M 146.5 33 L 153 36.5 L 151.5 36 L 146.5 34 L 146.5 33 Z " /><path fill="rgb(50,63,62)" stroke="rgb(50,63,62)" stroke-width="1" opacity="0.3254901960784314" d="M 54.5 34 L 42 47.5 L 35.5 57 L 36 55.5 Q 42.9 42.4 54.5 34 Z " /><path fill="rgb(50,63,62)" stroke="rgb(50,63,62)" stroke-width="1" opacity="0.3254901960784314" d="M 80.5 34 L 79.5 36 L 78 35.5 L 80.5 34 Z " /><path fill="rgb(50,63,62)" stroke="rgb(50,63,62)" stroke-width="1" opacity="0.3254901960784314" d="M 76.5 36 L 75.5 38 L 73.5 39 L 74.5 37 L 76.5 36 Z " /><path fill="rgb(50,63,62)" stroke="rgb(50,63,62)" stroke-width="1" opacity="0.3254901960784314" d="M 156.5 38 L 162 42.5 L 158.5 40 L 156.5 38 Z " /><path fill="rgb(50,63,62)" stroke="rgb(50,63,62)" stroke-width="1" opacity="0.3254901960784314" d="M 71.5 39 L 69.5 42 L 52.5 57 L 63.5 45 L 71.5 39 Z " /><path fill="rgb(50,63,62)" stroke="rgb(50,63,62)" stroke-width="1" opacity="0.3254901960784314" d="M 179.5 39 L 182 40.5 L 180.5 41 L 179.5 39 Z " /><path fill="rgb(50,63,62)" stroke="rgb(50,63,62)" stroke-width="1" opacity="0.3254901960784314" d="M 182.5 42 L 191 51.5 L 188 49.5 L 182.5 42 Z " /><path fill="rgb(50,63,62)" stroke="rgb(50,63,62)" stroke-width="1" opacity="0.3254901960784314" d="M 163.5 43 L 165.5 46 L 163.5 43 Z " /><path fill="rgb(50,63,62)" stroke="rgb(50,63,62)" stroke-width="1" opacity="0.3254901960784314" d="M 167.5 46 L 175.5 55 L 167.5 46 Z " /><path fill="rgb(50,63,62)" stroke="rgb(50,63,62)" stroke-width="1" opacity="0.3254901960784314" d="M 114.5 50 L 133 67.5 L 132.5 69 L 115.5 51 L 72.5 93 L 114.5 50 Z " /><path fill="rgb(50,63,62)" stroke="rgb(50,63,62)" stroke-width="1" opacity="0.3254901960784314" d="M 114.5 53 L 123 60 L 125.5 64 L 127 64 L 127 66 Q 129.7 64.9 129 67.5 L 133 70 Q 132 73 135 72 L 134 69.5 L 139 73.5 L 137.5 74 L 135 72.5 L 140.5 79 Q 142.8 78.3 142 80.5 L 165.5 105 L 114.5 54 L 63 104.5 L 114.5 53 Z " /><path fill="rgb(50,63,62)" stroke="rgb(50,63,62)" stroke-width="1" opacity="0.3254901960784314" d="M 191.5 53 L 195 57.5 L 193 56.5 L 191.5 53 Z " /><path fill="rgb(50,63,62)" stroke="rgb(50,63,62)" stroke-width="1" opacity="0.3254901960784314" d="M 176.5 56 L 178.5 59 L 176.5 56 Z " /><path fill="rgb(50,63,62)" stroke="rgb(50,63,62)" stroke-width="1" opacity="0.3254901960784314" d="M 34.5 58 L 33.5 60 L 34.5 58 Z " /><path fill="rgb(50,63,62)" stroke="rgb(50,63,62)" stroke-width="1" opacity="0.3254901960784314" d="M 51.5 58 L 50.5 60 L 51.5 58 Z " /><path fill="rgb(50,63,62)" stroke="rgb(50,63,62)" stroke-width="1" opacity="0.3254901960784314" d="M 195.5 59 L 198 62.5 L 196 61.5 L 195.5 59 Z " /><path fill="rgb(50,63,62)" stroke="rgb(50,63,62)" stroke-width="1" opacity="0.3254901960784314" d="M 179.5 60 L 183 64.5 L 181 63.5 L 179.5 60 Z " /><path fill="rgb(50,63,62)" stroke="rgb(50,63,62)" stroke-width="1" opacity="0.3254901960784314" d="M 49.5 61 L 48 63.5 L 41.5 76 L 41 74.5 L 49.5 61 Z " /><path fill="rgb(50,63,62)" stroke="rgb(50,63,62)" stroke-width="1" opacity="0.3254901960784314" d="M 31.5 63 L 31 64.5 L 27.5 73 L 27 71.5 L 31.5 63 Z " /><path fill="rgb(50,63,62)" stroke="rgb(50,63,62)" stroke-width="1" opacity="0.3254901960784314" d="M 198.5 64 L 202 71.5 L 201 71.5 L 198.5 64 Z " /><path fill="rgb(50,63,62)" stroke="rgb(50,63,62)" stroke-width="1" opacity="0.3254901960784314" d="M 183.5 66 L 187 71.5 L 185 70.5 L 183.5 66 Z " /><path fill="rgb(50,63,62)" stroke="rgb(50,63,62)" stroke-width="1" opacity="0.3254901960784314" d="M 187.5 73 L 189 76.5 L 188 76.5 L 187.5 73 Z " /><path fill="rgb(50,63,62)" stroke="rgb(50,63,62)" stroke-width="1" opacity="0.3254901960784314" d="M 202.5 73 L 204 77.5 L 203 77.5 L 202.5 73 Z " /><path fill="rgb(50,63,62)" stroke="rgb(50,63,62)" stroke-width="1" opacity="0.3254901960784314" d="M 26.5 74 L 27 75.5 L 23.5 86 L 23 83.5 L 26.5 74 Z " /><path fill="rgb(50,63,62)" stroke="rgb(50,63,62)" stroke-width="1" opacity="0.3254901960784314" d="M 139.5 75 L 166 100.5 L 164 101 L 159.5 95 Q 157.3 95.8 158 93.5 L 151 88 L 151 86 Q 148.3 87.1 149 84.5 L 145 82 L 140.5 76 L 139.5 75 Z " /><path fill="rgb(50,63,62)" stroke="rgb(50,63,62)" stroke-width="1" opacity="0.3254901960784314" d="M 189.5 78 L 190 81 L 177 80.5 L 189 80 L 189.5 78 Z " /><path fill="rgb(50,63,62)" stroke="rgb(50,63,62)" stroke-width="1" opacity="0.3254901960784314" d="M 113.5 79 L 115.5 79 L 148.5 112 L 150 112 L 149.5 114 L 115.5 80 L 113.5 80 L 64.5 129 L 63 129 L 63.5 125 L 64.5 128 L 113.5 79 Z " /><path fill="rgb(50,63,62)" stroke="rgb(50,63,62)" stroke-width="1" opacity="0.3254901960784314" d="M 40.5 80 L 52.5 80 L 53 82.5 L 51.5 85 L 51 83.5 L 52 81 L 40.5 81 L 40.5 80 Z " /><path fill="rgb(50,63,62)" stroke="rgb(50,63,62)" stroke-width="1" opacity="0.3254901960784314" d="M 177.5 82 L 179 85.5 L 178 85.5 L 177.5 82 Z " /><path fill="rgb(50,63,62)" stroke="rgb(50,63,62)" stroke-width="1" opacity="0.3254901960784314" d="M 205.5 82 L 207 84.5 L 205 85 L 205.5 82 Z " /><path fill="rgb(50,63,62)" stroke="rgb(50,63,62)" stroke-width="1" opacity="0.3254901960784314" d="M 206.5 86 L 207 88.5 L 206 88.5 L 206.5 86 Z " /><path fill="rgb(50,63,62)" stroke="rgb(50,63,62)" stroke-width="1" opacity="0.3254901960784314" d="M 22.5 87 L 23 91.5 L 22 92.5 L 22 101 L 45 101.5 L 22.5 102 L 21 100.5 L 21 92.5 L 22.5 87 Z " /><path fill="rgb(50,63,62)" stroke="rgb(50,63,62)" stroke-width="1" opacity="0.3254901960784314" d="M 113.5 90 L 80.5 124 L 79 123.5 L 81 123 Q 79.9 120.3 82.5 121 L 86 116 L 92 111.5 L 94.5 108 L 96 108 L 96 106 L 98 106 L 98 104 L 100 104 L 100 102 L 102 102 L 102 100 Q 104.7 101.1 104 98.5 L 111 92.5 Q 110.3 90.3 112.5 91 L 113.5 90 Z " /><path fill="rgb(50,63,62)" stroke="rgb(50,63,62)" stroke-width="1" opacity="0.3254901960784314" d="M 115.5 90 L 118 91.5 L 120 94.5 L 127 100 L 127 102 L 129 102 Q 127.9 104.7 130.5 104 L 146 119.5 L 146 121 L 147.5 121 L 166 139.5 L 167 146.5 L 162.5 152 L 160 153.5 L 151.5 163 Q 149.3 162.3 150 164.5 L 115.5 198 L 113.5 198 L 63 147.5 L 63 144.5 L 64 144.5 L 64 147.5 L 113.5 197 L 115.5 197 L 146.5 166 L 148 166 L 150.5 162 L 153.5 160 L 161.5 151 L 163 151 L 163 149 Q 165.7 150.1 165 147.5 Q 167.3 146.3 166 141.5 L 162.5 137 Q 160.3 137.8 161 135.5 L 154 130 L 149.5 124 L 146.5 122 L 143.5 118 L 141 116.5 L 139 113.5 L 135 111 Q 136.1 108.3 133.5 109 L 130.5 105 L 115.5 90 Z " /><path fill="rgb(50,63,62)" stroke="rgb(50,63,62)" stroke-width="1" opacity="0.3254901960784314" d="M 207.5 90 L 209 94.5 L 207 95 L 207.5 90 Z " /><path fill="rgb(50,63,62)" stroke="rgb(50,63,62)" stroke-width="1" opacity="0.3254901960784314" d="M 48.5 91 L 49 93.5 L 48 93.5 L 48.5 91 Z " /><path fill="rgb(50,63,62)" stroke="rgb(50,63,62)" stroke-width="1" opacity="0.3254901960784314" d="M 63.5 91 L 64 93.5 L 63 93.5 L 63.5 91 Z " /><path fill="rgb(50,63,62)" stroke="rgb(50,63,62)" stroke-width="1" opacity="0.3254901960784314" d="M 181.5 93 L 182 95.5 L 181 95.5 L 181.5 93 Z " /><path fill="rgb(50,63,62)" stroke="rgb(50,63,62)" stroke-width="1" opacity="0.3254901960784314" d="M 70.5 94 L 64.5 101 Q 61.9 101.8 63 98.5 L 64 98.5 L 64.5 100 L 67 96 L 70.5 94 Z " /><path fill="rgb(50,63,62)" stroke="rgb(50,63,62)" stroke-width="1" opacity="0.3254901960784314" d="M 47.5 95 L 48 97.5 L 47 97.5 L 47.5 95 Z " /><path fill="rgb(50,63,62)" stroke="rgb(50,63,62)" stroke-width="1" opacity="0.3254901960784314" d="M 208.5 96 L 209 101 L 206.5 102 L 184.5 102 Q 181.5 101.5 182 97.5 L 183 97.5 L 184.5 101 L 206.5 101 L 208 99.5 L 208.5 96 Z " /><path fill="rgb(50,63,62)" stroke="rgb(50,63,62)" stroke-width="1" opacity="0.3254901960784314" d="M 166.5 106 L 167 108.5 L 166 108.5 L 166.5 106 Z " /><path fill="rgb(50,63,62)" stroke="rgb(50,63,62)" stroke-width="1" opacity="0.3254901960784314" d="M 22.5 112 L 48 112.5 L 22 113 L 21.5 120 L 21 113.5 L 22.5 112 Z " /><path fill="rgb(50,63,62)" stroke="rgb(50,63,62)" stroke-width="1" opacity="0.3254901960784314" d="M 182.5 112 L 207.5 112 L 209 113.5 L 208.5 117 L 208 113 L 182.5 113 L 182 114.5 L 181 114.5 L 182.5 112 Z " /><path fill="rgb(50,63,62)" stroke="rgb(50,63,62)" stroke-width="1" opacity="0.3254901960784314" d="M 48.5 114 L 49 118.5 L 48 118.5 L 48.5 114 Z " /><path fill="rgb(50,63,62)" stroke="rgb(50,63,62)" stroke-width="1" opacity="0.3254901960784314" d="M 151.5 115 L 154 116.5 L 153.5 118 L 153 116 L 151.5 115 Z " /><path fill="rgb(50,63,62)" stroke="rgb(50,63,62)" stroke-width="1" opacity="0.3254901960784314" d="M 180.5 117 L 181 119.5 L 180 119.5 L 180.5 117 Z " /><path fill="rgb(50,63,62)" stroke="rgb(50,63,62)" stroke-width="1" opacity="0.3254901960784314" d="M 63.5 118 L 64 123.5 L 63 123.5 L 63.5 118 Z " /><path fill="rgb(50,63,62)" stroke="rgb(50,63,62)" stroke-width="1" opacity="0.3254901960784314" d="M 113.5 118 L 115.5 118 L 124 126.5 L 115.5 119 L 113.5 119 L 101 131.5 L 91 142.5 L 91 146 Q 93.7 144.9 93 147.5 L 102.5 157 L 104 157 L 104 159 L 106 159 Q 104.9 161.7 107.5 161 L 109.5 164 L 90 145.5 L 90 142.5 L 92 139 L 99 133.5 L 113.5 118 Z " /><path fill="rgb(50,63,62)" stroke="rgb(50,63,62)" stroke-width="1" opacity="0.3254901960784314" d="M 155.5 118 L 159.5 123 L 156 121 L 155.5 118 Z " /><path fill="rgb(50,63,62)" stroke="rgb(50,63,62)" stroke-width="1" opacity="0.3254901960784314" d="M 207 118 L 209 118.5 L 207.5 124 L 207 118 Z " /><path fill="rgb(50,63,62)" stroke="rgb(50,63,62)" stroke-width="1" opacity="0.3254901960784314" d="M 166.5 120 L 167 126.5 L 166 126.5 L 166.5 120 Z " /><path fill="rgb(50,63,62)" stroke="rgb(50,63,62)" stroke-width="1" opacity="0.3254901960784314" d="M 22.5 121 L 23 125.5 L 22 125.5 L 22.5 121 Z " /><path fill="rgb(50,63,62)" stroke="rgb(50,63,62)" stroke-width="1" opacity="0.3254901960784314" d="M 179.5 121 L 180 123.5 L 179 123.5 L 179.5 121 Z " /><path fill="rgb(50,63,62)" stroke="rgb(50,63,62)" stroke-width="1" opacity="0.3254901960784314" d="M 50.5 123 L 51 125.5 L 50 125.5 L 50.5 123 Z " /><path fill="rgb(50,63,62)" stroke="rgb(50,63,62)" stroke-width="1" opacity="0.3254901960784314" d="M 77.5 125 L 79 125.5 L 73 130 L 73 131.5 L 64 140.5 L 63.5 143 L 63 140.5 L 64 138 L 66 138 L 66 136 L 68 136 L 68 134 Q 70.7 135.1 70 132.5 L 77.5 125 Z " /><path fill="rgb(50,63,62)" stroke="rgb(50,63,62)" stroke-width="1" opacity="0.3254901960784314" d="M 206.5 125 L 207 127.5 L 206 127.5 L 206.5 125 Z " /><path fill="rgb(50,63,62)" stroke="rgb(50,63,62)" stroke-width="1" opacity="0.3254901960784314" d="M 162.5 126 L 166 128.5 L 164.5 129 L 162.5 126 Z " /><path fill="rgb(50,63,62)" stroke="rgb(50,63,62)" stroke-width="1" opacity="0.3254901960784314" d="M 23.5 127 L 26 136.5 L 25 136.5 L 23 130.5 L 23.5 127 Z " /><path fill="rgb(50,63,62)" stroke="rgb(50,63,62)" stroke-width="1" opacity="0.3254901960784314" d="M 51.5 127 L 54 132.5 L 52.5 134 L 40 134.5 Q 47.8 155.2 63.5 168 Q 71.2 175.3 82 179.5 L 80.5 180 Q 63.9 172.1 53 158.5 Q 43.4 147.8 39 133 L 53 132.5 L 51.5 127 Z " /><path fill="rgb(50,63,62)" stroke="rgb(50,63,62)" stroke-width="1" opacity="0.3254901960784314" d="M 125.5 127 L 127.5 130 L 133 134.5 L 132.5 136 L 128.5 131 L 125 128.5 L 125.5 127 Z " /><path fill="rgb(50,63,62)" stroke="rgb(50,63,62)" stroke-width="1" opacity="0.3254901960784314" d="M 177.5 128 L 178 129.5 L 177 133 L 189.5 133 L 190 135.5 L 188.5 138 L 188 136.5 L 189 134 L 177.5 134 L 176 132.5 L 177.5 128 Z " /><path fill="rgb(50,63,62)" stroke="rgb(50,63,62)" stroke-width="1" opacity="0.3254901960784314" d="M 205 129 L 207 129.5 L 204.5 135 L 204 133.5 L 205 129 Z " /><path fill="rgb(50,63,62)" stroke="rgb(50,63,62)" stroke-width="1" opacity="0.3254901960784314" d="M 134.5 136 L 140 141.5 L 140 145.5 L 130 154.5 L 134 149 L 139 145.5 Q 140 141 137.5 140 Q 135.3 140.8 136 138.5 L 134.5 136 Z " /><path fill="rgb(50,63,62)" stroke="rgb(50,63,62)" stroke-width="1" opacity="0.3254901960784314" d="M 203.5 136 L 204 138.5 L 202.5 141 L 202 139.5 L 203.5 136 Z " /><path fill="rgb(50,63,62)" stroke="rgb(50,63,62)" stroke-width="1" opacity="0.3254901960784314" d="M 26.5 138 L 28 141.5 L 27 141.5 L 26.5 138 Z " /><path fill="rgb(50,63,62)" stroke="rgb(50,63,62)" stroke-width="1" opacity="0.3254901960784314" d="M 187.5 139 L 188 140.5 L 186 141.5 L 187.5 139 Z " /><path fill="rgb(50,63,62)" stroke="rgb(50,63,62)" stroke-width="1" opacity="0.3254901960784314" d="M 28.5 143 L 37 158.5 L 34 156.5 L 28 144.5 L 28.5 143 Z " /><path fill="rgb(50,63,62)" stroke="rgb(50,63,62)" stroke-width="1" opacity="0.3254901960784314" d="M 185.5 143 L 186 144.5 L 184 145.5 L 185.5 143 Z " /><path fill="rgb(50,63,62)" stroke="rgb(50,63,62)" stroke-width="1" opacity="0.3254901960784314" d="M 182.5 149 L 181.5 151 L 182.5 149 Z " /><path fill="rgb(50,63,62)" stroke="rgb(50,63,62)" stroke-width="1" opacity="0.3254901960784314" d="M 197.5 151 L 197 152.5 L 194 160 L 192 159.5 L 197.5 151 Z " /><path fill="rgb(50,63,62)" stroke="rgb(50,63,62)" stroke-width="1" opacity="0.3254901960784314" d="M 180.5 152 L 178 155.5 L 167.5 168 L 167 166 L 173 161.5 L 180.5 152 Z " /><path fill="rgb(50,63,62)" stroke="rgb(50,63,62)" stroke-width="1" opacity="0.3254901960784314" d="M 128.5 155 L 116.5 168 L 114.5 169 L 110 165.5 L 111.5 165 L 114.5 168 L 115.5 167 L 128.5 155 Z " /><path fill="rgb(50,63,62)" stroke="rgb(50,63,62)" stroke-width="1" opacity="0.3254901960784314" d="M 37.5 160 L 39 162.5 L 38 162.5 L 37.5 160 Z " /><path fill="rgb(50,63,62)" stroke="rgb(50,63,62)" stroke-width="1" opacity="0.3254901960784314" d="M 191.5 161 L 189.5 164 L 191.5 161 Z " /><path fill="rgb(50,63,62)" stroke="rgb(50,63,62)" stroke-width="1" opacity="0.3254901960784314" d="M 40.5 164 L 54 178.5 L 43 168.5 L 40.5 164 Z " /><path fill="rgb(50,63,62)" stroke="rgb(50,63,62)" stroke-width="1" opacity="0.3254901960784314" d="M 188.5 165 L 185 169.5 Q 185.8 171.8 183.5 171 L 188.5 165 Z " /><path fill="rgb(50,63,62)" stroke="rgb(50,63,62)" stroke-width="1" opacity="0.3254901960784314" d="M 165.5 168 L 162.5 172 L 156.5 176 L 158.5 173 L 165.5 168 Z " /><path fill="rgb(50,63,62)" stroke="rgb(50,63,62)" stroke-width="1" opacity="0.3254901960784314" d="M 182.5 172 L 179.5 176 L 182.5 172 Z " /><path fill="rgb(50,63,62)" stroke="rgb(50,63,62)" stroke-width="1" opacity="0.3254901960784314" d="M 153.5 176 L 155 176.5 L 141.5 183 L 141.5 182 L 153.5 176 Z " /><path fill="rgb(50,63,62)" stroke="rgb(50,63,62)" stroke-width="1" opacity="0.3254901960784314" d="M 177.5 176 L 178 178 L 158.5 191 L 159.5 189 Q 170.3 184.3 177.5 176 Z " /><path fill="rgb(50,63,62)" stroke="rgb(50,63,62)" stroke-width="1" opacity="0.3254901960784314" d="M 55.5 179 L 68 188.5 L 66.5 188 Q 58.5 184.7 55.5 179 Z " /><path fill="rgb(50,63,62)" stroke="rgb(50,63,62)" stroke-width="1" opacity="0.3254901960784314" d="M 83.5 180 L 89 182.5 L 87.5 183 Q 83.5 182.5 83.5 180 Z " /><path fill="rgb(50,63,62)" stroke="rgb(50,63,62)" stroke-width="1" opacity="0.3254901960784314" d="M 139.5 182 L 140 184 L 138.5 184 L 122 200.5 L 126 201.5 L 121 202 L 121 200.5 L 139.5 182 Z " /><path fill="rgb(50,63,62)" stroke="rgb(50,63,62)" stroke-width="1" opacity="0.3254901960784314" d="M 90.5 183 L 106.5 199 L 108 199 L 106.5 202 L 105 201.5 L 107 200.5 L 90.5 183 Z " /><path fill="rgb(50,63,62)" stroke="rgb(50,63,62)" stroke-width="1" opacity="0.3254901960784314" d="M 73.5 191 L 76 192.5 L 74.5 193 L 73.5 191 Z " /><path fill="rgb(50,63,62)" stroke="rgb(50,63,62)" stroke-width="1" opacity="0.3254901960784314" d="M 156.5 191 L 155.5 193 L 154 192.5 L 156.5 191 Z " /><path fill="rgb(50,63,62)" stroke="rgb(50,63,62)" stroke-width="1" opacity="0.3254901960784314" d="M 82.5 195 L 90 197.5 L 87.5 198 L 82.5 196 L 82.5 195 Z " /><path fill="rgb(50,63,62)" stroke="rgb(50,63,62)" stroke-width="1" opacity="0.3254901960784314" d="M 146.5 195 L 148 195.5 L 136.5 199 L 136.5 198 L 146.5 195 Z " /><path fill="rgb(50,63,62)" stroke="rgb(50,63,62)" stroke-width="1" opacity="0.3254901960784314" d="M 91.5 198 L 94 198.5 L 91.5 199 L 91.5 198 Z " /><path fill="rgb(50,63,62)" stroke="rgb(50,63,62)" stroke-width="1" opacity="0.3254901960784314" d="M 95.5 199 L 98 199.5 L 95.5 200 L 95.5 199 Z " /><path fill="rgb(50,63,62)" stroke="rgb(50,63,62)" stroke-width="1" opacity="0.3254901960784314" d="M 132.5 199 L 135 199.5 L 132.5 200 L 132.5 199 Z " /><path fill="rgb(50,63,62)" stroke="rgb(50,63,62)" stroke-width="1" opacity="0.3254901960784314" d="M 99.5 200 L 103 200.5 L 99.5 201 L 99.5 200 Z " /><path fill="rgb(50,63,62)" stroke="rgb(50,63,62)" stroke-width="1" opacity="0.3254901960784314" d="M 127.5 200 L 131 200.5 L 127.5 201 L 127.5 200 Z " /><path fill="rgb(83,195,237)" stroke="rgb(83,195,237)" stroke-width="1" opacity="0.996078431372549" d="M 114.5 21 L 119 23 L 119 24.5 L 129.5 35 Q 131.8 34.3 131 36.5 L 138 42 L 140.5 46 Q 142.8 45.3 142 47.5 L 145 49 L 145 50.5 L 155.5 61 L 158.5 63 L 164 69.5 L 164 84.5 L 163 87.5 L 164 91.5 L 162.5 96 L 160 92 L 158 92 Q 159.1 89.3 156.5 90 L 147.5 81 L 146 81 L 144.5 78 L 142 76.5 L 140 73.5 L 132 66.5 L 115.5 49 L 109.5 53 L 90 44.5 L 94 43 L 95.5 40 Q 97.8 40.8 97 38.5 L 108 27.5 L 108 26 L 111 24.5 L 112.5 22 L 114.5 21 Z " /><path fill="rgb(83,195,237)" stroke="rgb(83,195,237)" stroke-width="1" opacity="0.996078431372549" d="M 151.5 93 L 153 93 L 153 95 Q 155.7 93.9 155 96.5 L 162 103.5 L 162 109 L 157 110 L 151.5 93 Z " /><path fill="rgb(26,116,178)" stroke="rgb(26,116,178)" stroke-width="1" opacity="0.9568627450980393" d="M 114.5 18 L 64.5 69 L 114.5 18 Z " /><path fill="rgb(26,116,178)" stroke="rgb(26,116,178)" stroke-width="1" opacity="0.9568627450980393" d="M 141.5 45 L 143.5 48 L 141.5 45 Z " /><path fill="rgb(26,116,178)" stroke="rgb(26,116,178)" stroke-width="1" opacity="0.9568627450980393" d="M 113.5 50 L 90.5 74 L 88 75.5 Q 88.8 77.8 86.5 77 L 84 81 L 82 81 Q 83.1 83.7 80.5 83 L 79 86 L 77.5 86 L 66 97.5 Q 66.7 100.1 64 99 L 64.5 96 L 66 96.5 L 66 76.5 Q 68.2 75.3 67 70.5 L 68.5 69 L 77 72.5 L 75 73.5 L 77.5 74 Q 79.3 70.3 81 73.5 Q 80.3 78.3 83.5 79 L 88.5 73 L 96 68 L 96 66 Q 98.7 67.1 98 64.5 L 113.5 50 Z M 81 78 L 79 81 L 83 80 L 81 78 Z " /><path fill="rgb(26,116,178)" stroke="rgb(26,116,178)" stroke-width="1" opacity="0.9568627450980393" d="M 116.5 50 L 127.5 62 L 116.5 50 Z " /><path fill="rgb(26,116,178)" stroke="rgb(26,116,178)" stroke-width="1" opacity="0.9568627450980393" d="M 114.5 54 L 115.5 56 L 114.5 55 L 96 73.5 L 87 83.5 L 89.5 85 L 90 83 L 95.5 82 Q 99.2 84.2 94 86.5 L 96.5 89 L 100 87.5 Q 99.3 85.3 101.5 86 L 111 79 Q 109.9 76.3 112.5 77 Q 114.5 73 116.5 77 Q 118.8 76.3 118 78.5 L 143.5 103 L 145 103 L 145 105 Q 147.7 103.9 147 106.5 Q 150.4 111.5 156 113 L 161 122 Q 163.7 120.9 163 123.5 L 164 123.5 L 165 120.5 L 164 119.5 L 164 110.5 L 165 108.5 L 163 103.5 L 166 105.5 L 166 126.5 L 164.5 127 L 116.5 79 L 113.5 79 L 101 90.5 L 99 93.5 L 95 96 L 95 97.5 L 64.5 128 L 64 104.5 L 71 98.5 L 114.5 54 Z " /><path fill="rgb(26,116,178)" stroke="rgb(26,116,178)" stroke-width="1" opacity="0.9568627450980393" d="M 118.5 58 L 128.5 69 L 118.5 58 Z " /><path fill="rgb(26,116,178)" stroke="rgb(26,116,178)" stroke-width="1" opacity="0.9568627450980393" d="M 73.5 67 L 74 69 L 72 68.5 L 73.5 67 Z " /><path fill="rgb(26,116,178)" stroke="rgb(26,116,178)" stroke-width="1" opacity="0.9568627450980393" d="M 164.5 68 L 166 69.5 L 166 99 L 162 96.5 L 165 97.5 L 165 69.5 L 164.5 68 Z " /><path fill="rgb(26,116,178)" stroke="rgb(26,116,178)" stroke-width="1" opacity="0.9568627450980393" d="M 63.5 70 L 64 85.5 L 63 85.5 L 63.5 70 Z " /><path fill="rgb(26,116,178)" stroke="rgb(26,116,178)" stroke-width="1" opacity="0.9568627450980393" d="M 132.5 72 L 161.5 102 L 132.5 72 Z " /><path fill="rgb(26,152,210)" stroke="rgb(26,152,210)" stroke-width="1" opacity="0.996078431372549" d="M 114.5 19 L 126 29.5 Q 125.3 31.8 127.5 31 L 132 37 L 141 44.5 L 140.5 46 L 138 42 L 131 36.5 Q 131.8 34.3 129.5 35 L 119 24.5 L 119 23 L 114.5 21 L 111 23.5 L 109.5 26 Q 107.3 25.3 108 27.5 L 97 38.5 L 97 40 L 94 41.5 Q 94.8 43.8 92.5 43 L 90 44.5 L 102.5 49 L 110 53.5 L 98 64.5 L 98 66 L 96 66 Q 97.1 68.7 94.5 68 L 85 76.5 L 82.5 80 L 79 81 L 80.5 78 L 82 77.5 L 79.5 72 L 78.5 75 L 75 73.5 L 77 72.5 L 68.5 69 L 67 70.5 Q 68.2 75.3 66 76.5 L 65.5 97 L 64 95.5 L 64 69.5 L 114.5 19 Z M 74 67 L 72 69 L 74 69 L 74 67 Z " /><path fill="rgb(26,152,210)" stroke="rgb(26,152,210)" stroke-width="1" opacity="0.996078431372549" d="M 142.5 47 L 152 55.5 Q 151.3 57.8 153.5 57 L 165 69.5 L 165 97.5 L 163 96.5 L 164 88.5 L 163 85.5 L 164 84.5 L 164 69.5 L 158.5 63 L 155.5 61 L 145 50.5 L 145 49 L 142.5 47 Z " /><path fill="rgb(26,152,210)" stroke="rgb(26,152,210)" stroke-width="1" opacity="0.996078431372549" d="M 114.5 55 L 118 57.5 L 128.5 69 L 132 71.5 L 152 92.5 L 152 94.5 L 157 110 L 162 109 L 162 103.5 L 155 96.5 L 161.5 102 Q 163.8 101.3 163 103.5 L 165 109.5 L 164 110.5 L 164 119.5 L 164 121.5 L 163.5 124 L 163 122 Q 160.3 123.1 161 120.5 L 156 113 Q 150.4 111.5 147 106.5 Q 147.7 103.9 145 105 L 145 103 L 143.5 103 L 118 78.5 Q 118.8 76.3 116.5 77 Q 114.5 73 112.5 77 L 109.5 79 L 100 86 L 98.5 89 Q 94.5 89.5 94 86.5 L 97 83.5 L 95.5 82 L 90 83 L 89.5 85 L 87 83.5 L 114.5 55 Z " /><path fill="rgb(26,152,210)" stroke="rgb(26,152,210)" stroke-width="1" opacity="0.996078431372549" d="M 130.5 64 L 131.5 66 L 130.5 64 Z " /><path fill="rgb(26,152,210)" stroke="rgb(26,152,210)" stroke-width="1" opacity="0.996078431372549" d="M 135.5 69 L 139.5 74 L 135.5 69 Z " /><path fill="rgb(26,152,210)" stroke="rgb(26,152,210)" stroke-width="1" opacity="0.996078431372549" d="M 144.5 78 L 145.5 80 L 144.5 78 Z " /><path fill="rgb(26,152,210)" stroke="rgb(26,152,210)" stroke-width="1" opacity="0.996078431372549" d="M 147.5 81 L 156.5 90 L 158 90 L 158 92 Q 160.7 90.9 160 93.5 L 161.5 96 L 147.5 81 Z " /><path fill="rgb(140,151,159)" stroke="rgb(140,151,159)" stroke-width="1" opacity="0.996078431372549" d="M 123.5 14 Q 164.2 20.3 185 46.5 Q 202.8 65.7 207 98.5 L 205.5 100 L 184.5 100 L 183 98.5 L 183 94.5 L 178 81 L 190.5 81 L 191 79.5 Q 184 60.5 170.5 48 L 152.5 35 L 138.5 30 L 124 16.5 L 123.5 14 Z " /><path fill="rgb(140,151,159)" stroke="rgb(140,151,159)" stroke-width="1" opacity="0.996078431372549" d="M 101 15 L 105 15.5 L 101.5 18 L 101 15 Z " /><path fill="rgb(65,79,89)" stroke="rgb(65,79,89)" stroke-width="1" opacity="0.9215686274509803" d="M 107.5 13 L 108 14.5 L 105 16.5 L 107.5 13 Z " /><path fill="rgb(65,79,89)" stroke="rgb(65,79,89)" stroke-width="1" opacity="0.9215686274509803" d="M 102.5 19 L 97.5 25 L 102.5 19 Z " /><path fill="rgb(65,79,89)" stroke="rgb(65,79,89)" stroke-width="1" opacity="0.9215686274509803" d="M 95.5 26 L 92.5 30 L 95.5 26 Z " /><path fill="rgb(65,79,89)" stroke="rgb(65,79,89)" stroke-width="1" opacity="0.9215686274509803" d="M 63.5 28 L 62.5 30 L 63.5 28 Z " /><path fill="rgb(65,79,89)" stroke="rgb(65,79,89)" stroke-width="1" opacity="0.9215686274509803" d="M 168.5 30 L 169.5 32 L 168.5 30 Z " /><path fill="rgb(65,79,89)" stroke="rgb(65,79,89)" stroke-width="1" opacity="0.9215686274509803" d="M 172.5 33 L 173.5 35 L 172.5 33 Z " /><path fill="rgb(65,79,89)" stroke="rgb(65,79,89)" stroke-width="1" opacity="0.9215686274509803" d="M 55.5 34 L 53.5 37 L 55.5 34 Z " /><path fill="rgb(65,79,89)" stroke="rgb(65,79,89)" stroke-width="1" opacity="0.9215686274509803" d="M 65.5 43 L 64.5 45 L 65.5 43 Z " /><path fill="rgb(65,79,89)" stroke="rgb(65,79,89)" stroke-width="1" opacity="0.9215686274509803" d="M 44.5 45 L 42.5 48 L 44.5 45 Z " /><path fill="rgb(65,79,89)" stroke="rgb(65,79,89)" stroke-width="1" opacity="0.9215686274509803" d="M 61.5 46 L 53.5 55 L 61.5 46 Z " /><path fill="rgb(65,79,89)" stroke="rgb(65,79,89)" stroke-width="1" opacity="0.9215686274509803" d="M 186.5 47 L 187.5 49 L 186.5 47 Z " /><path fill="rgb(65,79,89)" stroke="rgb(65,79,89)" stroke-width="1" opacity="0.9215686274509803" d="M 41.5 49 L 39.5 52 L 41.5 49 Z " /><path fill="rgb(65,79,89)" stroke="rgb(65,79,89)" stroke-width="1" opacity="0.9215686274509803" d="M 38.5 53 L 37.5 55 L 38.5 53 Z " /><path fill="rgb(65,79,89)" stroke="rgb(65,79,89)" stroke-width="1" opacity="0.9215686274509803" d="M 36.5 56 L 35.5 58 L 36.5 56 Z " /><path fill="rgb(65,79,89)" stroke="rgb(65,79,89)" stroke-width="1" opacity="0.9215686274509803" d="M 51.5 57 L 50 59.5 L 48.5 62 L 49 60.5 L 51.5 57 Z " /><path fill="rgb(65,79,89)" stroke="rgb(65,79,89)" stroke-width="1" opacity="0.9215686274509803" d="M 34.5 59 L 33.5 61 L 34.5 59 Z " /><path fill="rgb(65,79,89)" stroke="rgb(65,79,89)" stroke-width="1" opacity="0.9215686274509803" d="M 32.5 62 L 33 63.5 L 30.5 68 L 30 66.5 L 32.5 62 Z " /><path fill="rgb(65,79,89)" stroke="rgb(65,79,89)" stroke-width="1" opacity="0.9215686274509803" d="M 46.5 64 L 45.5 66 L 46.5 64 Z " /><path fill="rgb(65,79,89)" stroke="rgb(65,79,89)" stroke-width="1" opacity="0.9215686274509803" d="M 28.5 71 L 29 72.5 L 26.5 78 L 26 76.5 L 28.5 71 Z " /><path fill="rgb(65,79,89)" stroke="rgb(65,79,89)" stroke-width="1" opacity="0.9215686274509803" d="M 89.5 74 L 88.5 76 L 89.5 74 Z " /><path fill="rgb(65,79,89)" stroke="rgb(65,79,89)" stroke-width="1" opacity="0.9215686274509803" d="M 40.5 75 L 41 76.5 L 39.5 81 L 39 77.5 L 40.5 75 Z " /><path fill="rgb(65,79,89)" stroke="rgb(65,79,89)" stroke-width="1" opacity="0.9215686274509803" d="M 86.5 77 L 84.5 80 L 86.5 77 Z " /><path fill="rgb(65,79,89)" stroke="rgb(65,79,89)" stroke-width="1" opacity="0.9215686274509803" d="M 25.5 79 L 26 81.5 L 25 81.5 L 25.5 79 Z " /><path fill="rgb(65,79,89)" stroke="rgb(65,79,89)" stroke-width="1" opacity="0.9215686274509803" d="M 116.5 79 L 148.5 112 L 116.5 79 Z " /><path fill="rgb(65,79,89)" stroke="rgb(65,79,89)" stroke-width="1" opacity="0.9215686274509803" d="M 24.5 83 L 25 85.5 L 24 85.5 L 24.5 83 Z " /><path fill="rgb(65,79,89)" stroke="rgb(65,79,89)" stroke-width="1" opacity="0.9215686274509803" d="M 80.5 83 L 79.5 85 L 80.5 83 Z " /><path fill="rgb(65,79,89)" stroke="rgb(65,79,89)" stroke-width="1" opacity="0.9215686274509803" d="M 107.5 84 L 101.5 91 L 107.5 84 Z " /><path fill="rgb(65,79,89)" stroke="rgb(65,79,89)" stroke-width="1" opacity="0.9215686274509803" d="M 77.5 86 L 68.5 96 L 77.5 86 Z " /><path fill="rgb(65,79,89)" stroke="rgb(65,79,89)" stroke-width="1" opacity="0.9215686274509803" d="M 23.5 87 L 25 95.5 L 22.5 99 L 22 92.5 L 23.5 87 Z " /><path fill="rgb(65,79,89)" stroke="rgb(65,79,89)" stroke-width="1" opacity="0.9215686274509803" d="M 49.5 87 L 50 88.5 L 48.5 91 L 48 89.5 L 49.5 87 Z " /><path fill="rgb(65,79,89)" stroke="rgb(65,79,89)" stroke-width="1" opacity="0.9215686274509803" d="M 47.5 92 L 48 94.5 L 47 94.5 L 47.5 92 Z " /><path fill="rgb(65,79,89)" stroke="rgb(65,79,89)" stroke-width="1" opacity="0.9215686274509803" d="M 207.5 95 L 208 97.5 L 207 97.5 L 207.5 95 Z " /><path fill="rgb(65,79,89)" stroke="rgb(65,79,89)" stroke-width="1" opacity="0.9215686274509803" d="M 46.5 96 L 47 98.5 L 46 98.5 L 46.5 96 Z " /><path fill="rgb(65,79,89)" stroke="rgb(65,79,89)" stroke-width="1" opacity="0.9215686274509803" d="M 70.5 98 L 67.5 102 L 70.5 98 Z " /><path fill="rgb(65,79,89)" stroke="rgb(65,79,89)" stroke-width="1" opacity="0.9215686274509803" d="M 28.5 99 L 46 100.5 L 22.5 101 L 22.5 100 Q 27.3 101.3 28.5 99 Z " /><path fill="rgb(65,79,89)" stroke="rgb(65,79,89)" stroke-width="1" opacity="0.9215686274509803" d="M 63.5 105 L 64 117.5 L 63 117.5 L 63.5 105 Z " /><path fill="rgb(65,79,89)" stroke="rgb(65,79,89)" stroke-width="1" opacity="0.9215686274509803" d="M 22 113 L 28 113.5 L 24 116.5 L 23.5 118 Q 21 116.8 22 113 Z " /><path fill="rgb(65,79,89)" stroke="rgb(65,79,89)" stroke-width="1" opacity="0.9215686274509803" d="M 35.5 113 L 46.5 113 L 48 114.5 Q 46.8 119.2 49 120.5 L 48 123.5 L 49 127 L 51 127.5 Q 48.5 129 52 130.5 Q 53.2 135.1 48 133 Q 49.5 129.3 46.5 130 L 45 130.5 Q 47.3 129.3 44.5 128 L 41.5 127 L 37.5 128 L 36 125.5 L 36.5 124 Q 34.3 124.8 35 122.5 L 33 119.5 L 34 117.5 L 33.5 116 L 36.5 117 L 36.5 115 L 39 114.5 Q 34.6 114.9 35.5 113 Z " /><path fill="rgb(65,79,89)" stroke="rgb(65,79,89)" stroke-width="1" opacity="0.9215686274509803" d="M 150.5 113 L 151.5 115 L 150.5 113 Z " /><path fill="rgb(65,79,89)" stroke="rgb(65,79,89)" stroke-width="1" opacity="0.9215686274509803" d="M 207.5 113 L 208 117.5 L 207 117.5 L 207.5 113 Z " /><path fill="rgb(65,79,89)" stroke="rgb(65,79,89)" stroke-width="1" opacity="0.9215686274509803" d="M 23.5 121 L 24 125.5 L 23 125.5 L 23.5 121 Z " /><path fill="rgb(65,79,89)" stroke="rgb(65,79,89)" stroke-width="1" opacity="0.9215686274509803" d="M 206.5 122 L 207 124.5 L 206 124.5 L 206.5 122 Z " /><path fill="rgb(65,79,89)" stroke="rgb(65,79,89)" stroke-width="1" opacity="0.9215686274509803" d="M 162.5 125 L 166 127.5 L 164.5 128 L 162.5 125 Z " /><path fill="rgb(65,79,89)" stroke="rgb(65,79,89)" stroke-width="1" opacity="0.9215686274509803" d="M 24.5 127 L 32 147.5 L 36 153.5 L 34.5 154 L 26 137.5 L 24.5 127 Z " /><path fill="rgb(65,79,89)" stroke="rgb(65,79,89)" stroke-width="1" opacity="0.9215686274509803" d="M 35.5 131 L 37.5 134 L 35.5 131 Z " /><path fill="rgb(65,79,89)" stroke="rgb(65,79,89)" stroke-width="1" opacity="0.9215686274509803" d="M 187.5 141 L 186.5 143 L 187.5 141 Z " /><path fill="rgb(65,79,89)" stroke="rgb(65,79,89)" stroke-width="1" opacity="0.9215686274509803" d="M 200.5 143 L 201 144.5 L 199.5 147 L 199 145.5 L 200.5 143 Z " /><path fill="rgb(65,79,89)" stroke="rgb(65,79,89)" stroke-width="1" opacity="0.9215686274509803" d="M 185.5 145 L 184.5 147 L 185.5 145 Z " /><path fill="rgb(65,79,89)" stroke="rgb(65,79,89)" stroke-width="1" opacity="0.9215686274509803" d="M 182.5 150 L 181.5 152 L 182.5 150 Z " /><path fill="rgb(65,79,89)" stroke="rgb(65,79,89)" stroke-width="1" opacity="0.9215686274509803" d="M 197.5 150 L 196.5 152 L 197.5 150 Z " /><path fill="rgb(65,79,89)" stroke="rgb(65,79,89)" stroke-width="1" opacity="0.9215686274509803" d="M 180.5 153 L 179 155.5 L 174.5 161 L 178 156.5 L 180.5 153 Z " /><path fill="rgb(65,79,89)" stroke="rgb(65,79,89)" stroke-width="1" opacity="0.9215686274509803" d="M 36.5 155 L 37.5 158 L 40 159.5 Q 38.5 162.5 37 159.5 L 35 156.5 L 36.5 155 Z " /><path fill="rgb(65,79,89)" stroke="rgb(65,79,89)" stroke-width="1" opacity="0.9215686274509803" d="M 191.5 160 L 189 163.5 L 178.5 176 L 162.5 188 L 138.5 198 L 138 196.5 L 138.5 195 L 135 195 Q 136.3 192 132.5 193 L 131 193.5 L 133 190 Q 135.7 191.1 135 188.5 L 138 187 L 139.5 184 Q 158.3 177.8 170.5 165 L 167.5 169 L 160 175.5 L 160.5 177 L 157.5 176 L 153 178 L 153.5 180 Q 155 177.5 156.5 181 Q 160 183.5 167.5 182 Q 176.4 178.4 182 171.5 L 191.5 160 Z " /><path fill="rgb(65,79,89)" stroke="rgb(65,79,89)" stroke-width="1" opacity="0.9215686274509803" d="M 40.5 161 L 42 162.5 L 41.5 165 Q 37 163 40.5 161 Z " /><path fill="rgb(65,79,89)" stroke="rgb(65,79,89)" stroke-width="1" opacity="0.9215686274509803" d="M 43.5 165 L 58.5 181 Q 60.3 178.3 62 182.5 L 62.5 184 Q 63.7 181.8 65 184.5 L 65.5 186 L 67.5 186 L 70 187.5 L 70.5 189 Q 72 186.5 73.5 190 L 81 193.5 L 78.5 194 L 68 188.5 L 68.5 187 L 66.5 186 Q 65.3 188.3 64 185.5 L 63.5 184 L 62.5 185 L 59.5 182 Q 49.9 177.1 44 168.5 L 44.5 167 Q 41.7 167.7 43.5 165 Z " /><path fill="rgb(121,179,78)" stroke="rgb(121,179,78)" stroke-width="1" opacity="0.9647058823529412" d="M 114.5 90 L 113.5 92 L 114.5 90 Z " /><path fill="rgb(121,179,78)" stroke="rgb(121,179,78)" stroke-width="1" opacity="0.9647058823529412" d="M 123.5 99 L 124.5 101 L 123.5 99 Z " /><path fill="rgb(121,179,78)" stroke="rgb(121,179,78)" stroke-width="1" opacity="0.9647058823529412" d="M 130.5 105 L 131.5 107 L 130.5 105 Z " /><path fill="rgb(121,179,78)" stroke="rgb(121,179,78)" stroke-width="1" opacity="0.9647058823529412" d="M 136.5 111 L 138.5 114 L 136.5 111 Z " /><path fill="rgb(121,179,78)" stroke="rgb(121,179,78)" stroke-width="1" opacity="0.9647058823529412" d="M 89.5 115 L 87.5 118 L 89.5 115 Z " /><path fill="rgb(121,179,78)" stroke="rgb(121,179,78)" stroke-width="1" opacity="0.9647058823529412" d="M 112.5 118 L 97 134.5 Q 97.8 136.8 95.5 136 L 90 141.5 L 90 145.5 L 112.5 168 L 115.5 169 L 130 155.5 L 124 161.5 L 124 165.5 L 128 168.5 Q 127.3 170.8 129.5 170 L 133 174.5 L 131 178 Q 128.3 176.9 129 179.5 L 115.5 194 L 110 190.5 L 66 145.5 L 66 142.5 L 85.5 125 L 89.5 129 Q 90.8 126.8 92 129.5 L 92 132 Q 94.7 130.9 94 133.5 L 95.5 135 L 112.5 118 Z " /><path fill="rgb(121,179,78)" stroke="rgb(121,179,78)" stroke-width="1" opacity="0.9647058823529412" d="M 116.5 118 L 124.5 127 L 116.5 118 Z " /><path fill="rgb(121,179,78)" stroke="rgb(121,179,78)" stroke-width="1" opacity="0.9647058823529412" d="M 143.5 118 L 144.5 120 L 143.5 118 Z " /><path fill="rgb(121,179,78)" stroke="rgb(121,179,78)" stroke-width="1" opacity="0.9647058823529412" d="M 85.5 119 L 83.5 122 L 85.5 119 Z " /><path fill="rgb(121,179,78)" stroke="rgb(121,179,78)" stroke-width="1" opacity="0.9647058823529412" d="M 149.5 124 L 153.5 129 L 149.5 124 Z " /><path fill="rgb(121,179,78)" stroke="rgb(121,179,78)" stroke-width="1" opacity="0.9647058823529412" d="M 126.5 128 L 127.5 130 L 126.5 128 Z " /><path fill="rgb(121,179,78)" stroke="rgb(121,179,78)" stroke-width="1" opacity="0.9647058823529412" d="M 155.5 130 L 160.5 136 L 155.5 130 Z " /><path fill="rgb(121,179,78)" stroke="rgb(121,179,78)" stroke-width="1" opacity="0.9647058823529412" d="M 162.5 137 L 164.5 140 L 162.5 137 Z " /><path fill="rgb(121,179,78)" stroke="rgb(121,179,78)" stroke-width="1" opacity="0.9647058823529412" d="M 165.5 141 L 166 146.5 L 165 146.5 L 165.5 141 Z " /><path fill="rgb(121,179,78)" stroke="rgb(121,179,78)" stroke-width="1" opacity="0.9647058823529412" d="M 64.5 147 L 113.5 197 L 64.5 147 Z " /><path fill="rgb(121,179,78)" stroke="rgb(121,179,78)" stroke-width="1" opacity="0.9647058823529412" d="M 133.5 152 L 132.5 154 L 133.5 152 Z " /><path fill="rgb(121,179,78)" stroke="rgb(121,179,78)" stroke-width="1" opacity="0.9647058823529412" d="M 157.5 155 L 153.5 160 L 157.5 155 Z " /><path fill="rgb(121,179,78)" stroke="rgb(121,179,78)" stroke-width="1" opacity="0.9647058823529412" d="M 139.5 172 L 138.5 174 L 139.5 172 Z " /><path fill="rgb(121,179,78)" stroke="rgb(121,179,78)" stroke-width="1" opacity="0.9647058823529412" d="M 136.5 175 L 134.5 178 L 136.5 175 Z " /><path fill="rgb(121,179,78)" stroke="rgb(121,179,78)" stroke-width="1" opacity="0.9647058823529412" d="M 132.5 179 L 115.5 197 L 132.5 179 Z " /><path fill="rgb(196,218,107)" stroke="rgb(196,218,107)" stroke-width="1" opacity="0.996078431372549" d="M 113.5 94 L 115.5 94 L 129.5 108 L 131 108 L 136.5 115 Q 138.8 114.3 138 116.5 L 162 140.5 L 163 144.5 L 155.5 153 L 152.5 154 Q 150.3 150 145 150 Q 146.3 147 142.5 148 L 139 149 L 141 143.5 L 135.5 136 L 133 134.5 L 129.5 130 L 115.5 117 L 113.5 117 L 103.5 127 L 102 125.5 Q 97.2 120.3 99 108.5 L 113.5 94 Z " /><path fill="rgb(163,202,76)" stroke="rgb(163,202,76)" stroke-width="1" opacity="0.984313725490196" d="M 114.5 91 L 123 98.5 L 124.5 101 L 165 140.5 L 165 147.5 L 144.5 168 L 139.5 172 L 138 175 L 134 177.5 Q 134.8 179.8 132.5 179 L 114.5 197 L 64 146.5 L 65 139.5 L 82.5 122 L 86 119.5 Q 85.3 117.3 87.5 118 L 112.5 92 L 114.5 91 Z M 114 94 L 99 109 L 99 120 L 103 128 L 96 135 L 94 134 Q 95 131 92 132 L 92 130 Q 91 127 90 129 L 86 125 L 66 143 L 66 146 L 110 191 L 116 194 L 129 180 Q 128 177 131 178 L 133 175 L 130 170 Q 127 171 128 169 L 126 167 Q 123 166 124 162 L 133 154 L 139 147 L 139 149 L 143 148 Q 146 147 145 150 Q 150 150 153 154 L 156 153 L 163 145 L 162 141 L 138 117 Q 139 114 137 115 L 131 108 L 130 108 L 116 94 L 114 94 Z " /><path fill="rgb(163,202,76)" stroke="rgb(163,202,76)" stroke-width="1" opacity="0.984313725490196" d="M 129.5 130 L 132.5 134 L 129.5 130 Z " /><path fill="rgb(163,202,76)" stroke="rgb(163,202,76)" stroke-width="1" opacity="0.984313725490196" d="M 135.5 136 L 139.5 141 L 135.5 136 Z " /><path fill="rgb(98,109,118)" stroke="rgb(98,109,118)" stroke-width="1" opacity="0.9725490196078431" d="M 105.5 13 Q 107.8 12.3 107 14.5 L 105 18 L 97 24.5 Q 97.8 26.8 95.5 26 L 91.5 30 Q 78.5 33 69.5 40 L 53 54.5 L 45 65.5 L 39 77.5 L 39 81 L 42.5 82 L 43.5 81 L 51 81 L 47 92.5 L 46 100 L 31.5 100 L 28.5 99 Q 27.3 101.3 22.5 100 L 24 97.5 L 23 95.5 L 26 78.5 L 33 61.5 Q 40.9 47.4 52.5 37 Q 64 26.5 79.5 20 L 90.5 16 L 105.5 13 Z M 101 15 L 102 18 L 105 16 L 101 15 Z " /><path fill="rgb(98,109,118)" stroke="rgb(98,109,118)" stroke-width="1" opacity="0.9725490196078431" d="M 122 13 L 124 13.5 L 123.5 16 L 122 13 Z " /><path fill="rgb(98,109,118)" stroke="rgb(98,109,118)" stroke-width="1" opacity="0.9725490196078431" d="M 127.5 14 L 130 14.5 L 127.5 15 L 127.5 14 Z " /><path fill="rgb(98,109,118)" stroke="rgb(98,109,118)" stroke-width="1" opacity="0.9725490196078431" d="M 135.5 16 L 142 17.5 L 139.5 18 L 135.5 17 L 135.5 16 Z " /><path fill="rgb(98,109,118)" stroke="rgb(98,109,118)" stroke-width="1" opacity="0.9725490196078431" d="M 126.5 18 L 137.5 30 L 126.5 18 Z " /><path fill="rgb(98,109,118)" stroke="rgb(98,109,118)" stroke-width="1" opacity="0.9725490196078431" d="M 146.5 19 L 150 20.5 L 148.5 21 L 146.5 19 Z " /><path fill="rgb(98,109,118)" stroke="rgb(98,109,118)" stroke-width="1" opacity="0.9725490196078431" d="M 153.5 22 L 158 24.5 L 156.5 24 Q 152.7 23.8 153.5 22 Z " /><path fill="rgb(98,109,118)" stroke="rgb(98,109,118)" stroke-width="1" opacity="0.9725490196078431" d="M 161.5 26 L 169 31.5 L 166.5 30 Q 161.9 28.8 161.5 26 Z " /><path fill="rgb(98,109,118)" stroke="rgb(98,109,118)" stroke-width="1" opacity="0.9725490196078431" d="M 170.5 32 L 186 46.5 L 194 57.5 L 191 55.5 Q 184.6 44 174.5 36 L 170.5 32 Z " /><path fill="rgb(98,109,118)" stroke="rgb(98,109,118)" stroke-width="1" opacity="0.9725490196078431" d="M 160.5 40 L 162.5 43 L 160.5 40 Z " /><path fill="rgb(98,109,118)" stroke="rgb(98,109,118)" stroke-width="1" opacity="0.9725490196078431" d="M 164.5 43 L 166.5 46 L 164.5 43 Z " /><path fill="rgb(98,109,118)" stroke="rgb(98,109,118)" stroke-width="1" opacity="0.9725490196078431" d="M 170.5 48 L 173.5 52 L 170.5 48 Z " /><path fill="rgb(98,109,118)" stroke="rgb(98,109,118)" stroke-width="1" opacity="0.9725490196078431" d="M 176.5 55 L 178.5 58 L 176.5 55 Z " /><path fill="rgb(98,109,118)" stroke="rgb(98,109,118)" stroke-width="1" opacity="0.9725490196078431" d="M 194.5 59 L 199 67.5 L 198 67.5 L 194.5 59 Z " /><path fill="rgb(98,109,118)" stroke="rgb(98,109,118)" stroke-width="1" opacity="0.9725490196078431" d="M 180.5 60 L 181.5 62 L 180.5 60 Z " /><path fill="rgb(98,109,118)" stroke="rgb(98,109,118)" stroke-width="1" opacity="0.9725490196078431" d="M 183.5 65 L 184.5 67 L 183.5 65 Z " /><path fill="rgb(98,109,118)" stroke="rgb(98,109,118)" stroke-width="1" opacity="0.9725490196078431" d="M 199.5 69 L 202 74.5 L 201 74.5 L 199.5 69 Z " /><path fill="rgb(98,109,118)" stroke="rgb(98,109,118)" stroke-width="1" opacity="0.9725490196078431" d="M 202.5 76 L 204 80.5 L 203 80.5 L 202.5 76 Z " /><path fill="rgb(98,109,118)" stroke="rgb(98,109,118)" stroke-width="1" opacity="0.9725490196078431" d="M 204.5 82 L 205 84.5 L 204 84.5 L 204.5 82 Z " /><path fill="rgb(98,109,118)" stroke="rgb(98,109,118)" stroke-width="1" opacity="0.9725490196078431" d="M 205.5 86 L 207 95.5 L 206 95.5 L 205.5 86 Z " /><path fill="rgb(98,109,118)" stroke="rgb(98,109,118)" stroke-width="1" opacity="0.9725490196078431" d="M 182.5 94 L 183 96.5 L 182 96.5 L 182.5 94 Z " /><path fill="rgb(98,109,118)" stroke="rgb(98,109,118)" stroke-width="1" opacity="0.9725490196078431" d="M 207.5 98 L 207 99.5 L 206.5 101 L 184.5 101 L 183.5 99 L 184.5 100 L 205.5 100 L 207.5 98 Z " /><path fill="rgb(98,109,118)" stroke="rgb(98,109,118)" stroke-width="1" opacity="0.9725490196078431" d="M 182 113 L 207 113 L 207 121.5 Q 204.3 137.3 198 149.5 Q 190.3 164.3 178.5 175 L 170.5 181 L 158.5 182 L 154.5 179 L 153 179.5 Q 152.3 177.3 154.5 178 L 157.5 176 L 160.5 177 L 160 175.5 L 166.5 169 L 171 165.5 L 172.5 163 Q 174.8 163.8 174 161.5 Q 186.3 150.9 190 133 L 177.5 133 L 177 131.5 L 180 125.5 L 182 113 Z " /><path fill="rgb(98,109,118)" stroke="rgb(98,109,118)" stroke-width="1" opacity="0.9725490196078431" d="M 98.5 133 L 97.5 135 L 98.5 133 Z " /><path fill="rgb(98,109,118)" stroke="rgb(98,109,118)" stroke-width="1" opacity="0.9725490196078431" d="M 95.5 136 L 93.5 139 L 95.5 136 Z " /><path fill="rgb(98,109,118)" stroke="rgb(98,109,118)" stroke-width="1" opacity="0.9725490196078431" d="M 91.5 140 L 90.5 142 L 91.5 140 Z " /><path fill="rgb(98,109,118)" stroke="rgb(98,109,118)" stroke-width="1" opacity="0.9725490196078431" d="M 35.5 154 L 38 157.5 L 35 155.5 L 35.5 154 Z " /><path fill="rgb(98,109,118)" stroke="rgb(98,109,118)" stroke-width="1" opacity="0.9725490196078431" d="M 38.5 159 L 40 161.5 L 39 161.5 L 38.5 159 Z " /><path fill="rgb(98,109,118)" stroke="rgb(98,109,118)" stroke-width="1" opacity="0.9725490196078431" d="M 107.5 162 L 109.5 165 L 107.5 162 Z " /><path fill="rgb(98,109,118)" stroke="rgb(98,109,118)" stroke-width="1" opacity="0.9725490196078431" d="M 41.5 163 L 43 165.5 L 42 165.5 L 41.5 163 Z " /><path fill="rgb(98,109,118)" stroke="rgb(98,109,118)" stroke-width="1" opacity="0.9725490196078431" d="M 111.5 166 L 112.5 168 L 111.5 166 Z " /><path fill="rgb(98,109,118)" stroke="rgb(98,109,118)" stroke-width="1" opacity="0.9725490196078431" d="M 44.5 167 L 54.5 178 L 44.5 167 Z " /><path fill="rgb(98,109,118)" stroke="rgb(98,109,118)" stroke-width="1" opacity="0.9725490196078431" d="M 62.5 183 L 63.5 185 L 62.5 183 Z " /><path fill="rgb(98,109,118)" stroke="rgb(98,109,118)" stroke-width="1" opacity="0.9725490196078431" d="M 65.5 185 L 69 187.5 L 67.5 188 L 65.5 185 Z " /><path fill="rgb(53,64,73)" stroke="rgb(53,64,73)" stroke-width="1" opacity="0.9764705882352941" d="M 28.5 113 L 30.5 114 L 34.5 113 L 39 114.5 L 36 115.5 L 36.5 117 L 33.5 116 L 34 117.5 L 33 119.5 L 35 124 L 37 124.5 L 36 126.5 Q 36.8 128.8 40.5 128 L 42.5 127 L 48 130 L 48 133 L 40.5 133 L 39 132.5 Q 46.3 155.7 63.5 169 Q 73.8 178.7 89.5 183 L 107 200.5 L 103.5 201 L 90.5 198 L 88.5 196 Q 87 198.5 85.5 195 L 82.5 194 L 81 194.5 Q 81.8 192.3 79.5 193 Q 56.8 182.2 42 163.5 L 32 147.5 L 25 127 L 23 126.5 L 24 121 Q 20.7 122.3 22 117.5 L 24 117.5 L 26.5 114 L 28.5 113 Z " /><path fill="rgb(53,64,73)" stroke="rgb(53,64,73)" stroke-width="1" opacity="0.9764705882352941" d="M 48.5 121 L 51 126.5 L 49 127 L 48.5 121 Z " /><path fill="rgb(53,64,73)" stroke="rgb(53,64,73)" stroke-width="1" opacity="0.9764705882352941" d="M 50.5 128 L 51.5 130 L 50.5 128 Z " /><path fill="rgb(53,64,73)" stroke="rgb(53,64,73)" stroke-width="1" opacity="0.9764705882352941" d="M 138.5 184 L 138 185.5 Q 138.8 187.8 136.5 187 L 135 190 Q 132.3 188.9 133 191.5 L 132.5 193 Q 136.3 192 135 195 L 138.5 195 L 138 196.5 Q 138.8 198.8 136.5 198 Q 131.1 201.1 122.5 201 L 138.5 184 Z " /><path fill="rgb(53,64,73)" stroke="rgb(53,64,73)" stroke-width="1" opacity="0.9764705882352941" d="M 149.5 193 L 152 193.5 L 144.5 196 L 144.5 195 L 149.5 193 Z " /></svg>